<?xml version="1.0" encoding="utf-8"?>
<!-- Generator: Adobe Illustrator 26.2.1, SVG Export Plug-In . SVG Version: 6.00 Build 0)  -->
<svg version="1.1" id="레이어_1" xmlns="http://www.w3.org/2000/svg" xmlns:xlink="http://www.w3.org/1999/xlink" x="0px"
	 y="0px" viewBox="0 0 400 100" style="enable-background:new 0 0 400 100;" xml:space="preserve">
<style type="text/css">
	.st0{fill:url(#SVGID_1_);}
	.st1{fill:url(#SVGID_00000116215188376433748200000011614325801650616757_);}
	.st2{fill:url(#SVGID_00000034785041112323218550000016275077730476396165_);}
	.st3{fill:url(#SVGID_00000005985733695594816470000004775844799483017913_);}
	.st4{fill:url(#SVGID_00000048471693515364398670000005146116911007156640_);}
	.st5{fill:url(#SVGID_00000003815517226526305710000003339085583394450074_);}
	.st6{fill:url(#SVGID_00000075842009939102315590000008892914454777304455_);}
	.st7{fill:url(#SVGID_00000064332728280085531420000006369528169046492048_);}
	.st8{fill:url(#SVGID_00000115510292476854079060000004116292727436069037_);}
	.st9{fill:url(#SVGID_00000008108256643910465910000004077696904657199246_);}
	.st10{fill:url(#SVGID_00000145040380203163707980000017480642524171367560_);}
	.st11{fill:url(#SVGID_00000103982316984093286530000016969603735172348086_);}
	.st12{fill:url(#SVGID_00000155104515112438415970000005812956018960838832_);}
	.st13{fill:url(#SVGID_00000173162912889439072460000017388012591007600312_);}
	.st14{fill:url(#SVGID_00000059998651735099236000000017462502394683038643_);}
	.st15{fill:url(#SVGID_00000110467340242652469120000003550848919615634339_);}
	.st16{fill:url(#SVGID_00000178907710484226503420000011174920218727242148_);}
	.st17{fill:url(#SVGID_00000183964862071590621390000000792689931538334366_);}
	.st18{fill:url(#SVGID_00000079449437403128246890000007088993516458067843_);}
</style>
<g>
	<g>
		
			<linearGradient id="SVGID_1_" gradientUnits="userSpaceOnUse" x1="25.2699" y1="89.5274" x2="25.2699" y2="42.5168" gradientTransform="matrix(1 0 0 -1 0 100)">
			<stop  offset="0" style="stop-color:#00002C"/>
			<stop  offset="1" style="stop-color:#002D79"/>
		</linearGradient>
		<path class="st0" d="M25.27,80.33c-0.42,0-0.76-0.34-0.76-0.76V19.86c0-0.42,0.34-0.76,0.76-0.76s0.76,0.34,0.76,0.76v59.71
			C26.03,79.99,25.69,80.33,25.27,80.33z"/>
	</g>
	<g>
		<g>
			
				<linearGradient id="SVGID_00000156563135670080978850000017110969404083202707_" gradientUnits="userSpaceOnUse" x1="25.4449" y1="89.5276" x2="25.4449" y2="42.5163" gradientTransform="matrix(1 0 0 -1 0 100)">
				<stop  offset="0" style="stop-color:#00002C"/>
				<stop  offset="1" style="stop-color:#002D79"/>
			</linearGradient>
			<path style="fill:url(#SVGID_00000156563135670080978850000017110969404083202707_);" d="M37.42,22.98H13.47
				c-0.42,0-0.76-0.34-0.76-0.76s0.34-0.76,0.76-0.76h23.95c0.42,0,0.76,0.34,0.76,0.76S37.84,22.98,37.42,22.98z"/>
		</g>
		<g>
			
				<linearGradient id="SVGID_00000015350348726075876940000013241893485883039874_" gradientUnits="userSpaceOnUse" x1="30.6649" y1="89.5275" x2="30.6649" y2="42.5168" gradientTransform="matrix(1 0 0 -1 0 100)">
				<stop  offset="0" style="stop-color:#00002C"/>
				<stop  offset="1" style="stop-color:#002D79"/>
			</linearGradient>
			<path style="fill:url(#SVGID_00000015350348726075876940000013241893485883039874_);" d="M25.27,32.42c-0.2,0-0.4-0.08-0.55-0.24
				c-0.29-0.31-0.27-0.79,0.03-1.07l10.79-10.12c0.3-0.29,0.79-0.27,1.07,0.03c0.29,0.31,0.27,0.79-0.03,1.07L25.79,32.21
				C25.65,32.36,25.46,32.42,25.27,32.42z"/>
		</g>
		<g>
			
				<linearGradient id="SVGID_00000116957321355545811260000015738510390767510151_" gradientUnits="userSpaceOnUse" x1="19.8799" y1="89.5274" x2="19.8799" y2="42.5167" gradientTransform="matrix(1 0 0 -1 0 100)">
				<stop  offset="0" style="stop-color:#00002C"/>
				<stop  offset="1" style="stop-color:#002D79"/>
			</linearGradient>
			<path style="fill:url(#SVGID_00000116957321355545811260000015738510390767510151_);" d="M25.27,32.42
				c-0.19,0-0.37-0.07-0.52-0.21L13.96,22.09c-0.31-0.29-0.32-0.77-0.03-1.07c0.29-0.31,0.77-0.32,1.07-0.03l10.8,10.12
				c0.31,0.29,0.32,0.77,0.03,1.07C25.68,32.34,25.47,32.42,25.27,32.42z"/>
		</g>
		<g>
			
				<linearGradient id="SVGID_00000101094539594678671770000008780030718666874011_" gradientUnits="userSpaceOnUse" x1="35.5999" y1="89.5272" x2="35.5999" y2="42.5175" gradientTransform="matrix(1 0 0 -1 0 100)">
				<stop  offset="0" style="stop-color:#00002C"/>
				<stop  offset="1" style="stop-color:#002D79"/>
			</linearGradient>
			<path style="fill:url(#SVGID_00000101094539594678671770000008780030718666874011_);" d="M36.95,21.54c0,0.75-0.6,1.35-1.35,1.35
				s-1.35-0.6-1.35-1.35s0.6-1.35,1.35-1.35C36.35,20.19,36.95,20.8,36.95,21.54z"/>
		</g>
		<g>
			
				<linearGradient id="SVGID_00000160900818564443391430000012798442379958520499_" gradientUnits="userSpaceOnUse" x1="30.0399" y1="89.5272" x2="30.0399" y2="42.5175" gradientTransform="matrix(1 0 0 -1 0 100)">
				<stop  offset="0" style="stop-color:#00002C"/>
				<stop  offset="1" style="stop-color:#002D79"/>
			</linearGradient>
			<path style="fill:url(#SVGID_00000160900818564443391430000012798442379958520499_);" d="M31.39,21.54c0,0.75-0.6,1.35-1.35,1.35
				s-1.35-0.6-1.35-1.35s0.6-1.35,1.35-1.35C30.78,20.19,31.39,20.8,31.39,21.54z"/>
		</g>
		<g>
			
				<linearGradient id="SVGID_00000120543923119403383110000007866895162352226720_" gradientUnits="userSpaceOnUse" x1="14.9398" y1="89.5272" x2="14.9398" y2="42.5175" gradientTransform="matrix(1 0 0 -1 0 100)">
				<stop  offset="0" style="stop-color:#00002C"/>
				<stop  offset="1" style="stop-color:#002D79"/>
			</linearGradient>
			<path style="fill:url(#SVGID_00000120543923119403383110000007866895162352226720_);" d="M13.59,21.54c0,0.75,0.6,1.35,1.35,1.35
				s1.35-0.6,1.35-1.35s-0.6-1.35-1.35-1.35C14.2,20.19,13.59,20.8,13.59,21.54z"/>
		</g>
		<g>
			
				<linearGradient id="SVGID_00000049936108284604297170000013747031031240734849_" gradientUnits="userSpaceOnUse" x1="20.5098" y1="89.5272" x2="20.5098" y2="42.5175" gradientTransform="matrix(1 0 0 -1 0 100)">
				<stop  offset="0" style="stop-color:#00002C"/>
				<stop  offset="1" style="stop-color:#002D79"/>
			</linearGradient>
			<path style="fill:url(#SVGID_00000049936108284604297170000013747031031240734849_);" d="M19.16,21.54c0,0.75,0.6,1.35,1.35,1.35
				s1.35-0.6,1.35-1.35s-0.6-1.35-1.35-1.35C19.76,20.19,19.16,20.8,19.16,21.54z"/>
		</g>
	</g>
	<g>
		<g>
			
				<linearGradient id="SVGID_00000179619453662682811320000000365241497058267272_" gradientUnits="userSpaceOnUse" x1="25.4449" y1="89.5278" x2="25.4449" y2="42.5165" gradientTransform="matrix(1 0 0 -1 0 100)">
				<stop  offset="0" style="stop-color:#00002C"/>
				<stop  offset="1" style="stop-color:#002D79"/>
			</linearGradient>
			<path style="fill:url(#SVGID_00000179619453662682811320000000365241497058267272_);" d="M37.42,37.76H13.47
				c-0.42,0-0.76-0.34-0.76-0.76s0.34-0.76,0.76-0.76h23.95c0.42,0,0.76,0.34,0.76,0.76S37.84,37.76,37.42,37.76z"/>
		</g>
		<g>
			
				<linearGradient id="SVGID_00000092455527384899218330000007034712363432678280_" gradientUnits="userSpaceOnUse" x1="30.6649" y1="89.5274" x2="30.6649" y2="42.5169" gradientTransform="matrix(1 0 0 -1 0 100)">
				<stop  offset="0" style="stop-color:#00002C"/>
				<stop  offset="1" style="stop-color:#002D79"/>
			</linearGradient>
			<path style="fill:url(#SVGID_00000092455527384899218330000007034712363432678280_);" d="M25.27,47.2c-0.2,0-0.4-0.08-0.55-0.24
				c-0.29-0.31-0.27-0.79,0.03-1.07l10.79-10.12c0.3-0.29,0.79-0.27,1.07,0.03c0.29,0.31,0.27,0.79-0.03,1.07L25.79,47
				C25.65,47.13,25.46,47.2,25.27,47.2z"/>
		</g>
		<g>
			
				<linearGradient id="SVGID_00000139280445577658535070000014832259809327119275_" gradientUnits="userSpaceOnUse" x1="19.8799" y1="89.5274" x2="19.8799" y2="42.5167" gradientTransform="matrix(1 0 0 -1 0 100)">
				<stop  offset="0" style="stop-color:#00002C"/>
				<stop  offset="1" style="stop-color:#002D79"/>
			</linearGradient>
			<path style="fill:url(#SVGID_00000139280445577658535070000014832259809327119275_);" d="M25.27,47.2
				c-0.19,0-0.37-0.07-0.52-0.21L13.96,36.87c-0.31-0.29-0.32-0.77-0.03-1.07c0.29-0.31,0.77-0.32,1.07-0.03l10.8,10.12
				c0.31,0.29,0.32,0.77,0.03,1.07C25.68,47.12,25.47,47.2,25.27,47.2z"/>
		</g>
		<g>
			
				<linearGradient id="SVGID_00000159452993591994903710000004792805456431872660_" gradientUnits="userSpaceOnUse" x1="35.5999" y1="89.5269" x2="35.5999" y2="42.5172" gradientTransform="matrix(1 0 0 -1 0 100)">
				<stop  offset="0" style="stop-color:#00002C"/>
				<stop  offset="1" style="stop-color:#002D79"/>
			</linearGradient>
			<path style="fill:url(#SVGID_00000159452993591994903710000004792805456431872660_);" d="M36.95,36.32c0,0.75-0.6,1.35-1.35,1.35
				s-1.35-0.6-1.35-1.35s0.6-1.35,1.35-1.35C36.35,34.97,36.95,35.58,36.95,36.32z"/>
		</g>
		<g>
			
				<linearGradient id="SVGID_00000078010578555032912690000003217881289845546147_" gradientUnits="userSpaceOnUse" x1="30.0399" y1="89.5269" x2="30.0399" y2="42.5172" gradientTransform="matrix(1 0 0 -1 0 100)">
				<stop  offset="0" style="stop-color:#00002C"/>
				<stop  offset="1" style="stop-color:#002D79"/>
			</linearGradient>
			<path style="fill:url(#SVGID_00000078010578555032912690000003217881289845546147_);" d="M31.39,36.32c0,0.75-0.6,1.35-1.35,1.35
				s-1.35-0.6-1.35-1.35s0.6-1.35,1.35-1.35C30.78,34.97,31.39,35.58,31.39,36.32z"/>
		</g>
		<g>
			
				<linearGradient id="SVGID_00000130642873947873700400000009891422452636723098_" gradientUnits="userSpaceOnUse" x1="14.9398" y1="89.5269" x2="14.9398" y2="42.5172" gradientTransform="matrix(1 0 0 -1 0 100)">
				<stop  offset="0" style="stop-color:#00002C"/>
				<stop  offset="1" style="stop-color:#002D79"/>
			</linearGradient>
			<path style="fill:url(#SVGID_00000130642873947873700400000009891422452636723098_);" d="M13.59,36.32c0,0.75,0.6,1.35,1.35,1.35
				s1.35-0.6,1.35-1.35s-0.6-1.35-1.35-1.35C14.2,34.97,13.59,35.58,13.59,36.32z"/>
		</g>
		<g>
			
				<linearGradient id="SVGID_00000178884930156468341210000002902686722961630351_" gradientUnits="userSpaceOnUse" x1="20.5098" y1="89.5269" x2="20.5098" y2="42.5172" gradientTransform="matrix(1 0 0 -1 0 100)">
				<stop  offset="0" style="stop-color:#00002C"/>
				<stop  offset="1" style="stop-color:#002D79"/>
			</linearGradient>
			<path style="fill:url(#SVGID_00000178884930156468341210000002902686722961630351_);" d="M19.16,36.32c0,0.75,0.6,1.35,1.35,1.35
				s1.35-0.6,1.35-1.35s-0.6-1.35-1.35-1.35C19.76,34.97,19.16,35.58,19.16,36.32z"/>
		</g>
	</g>
</g>
<g>
	<g>
		
			<linearGradient id="SVGID_00000119094971473480276310000011351390220291004833_" gradientUnits="userSpaceOnUse" x1="201.4941" y1="3.8491" x2="201.4941" y2="94.9856" gradientTransform="matrix(1.697 -0.0118 6.543773e-03 0.9383 -137.6614 1.8169)">
			<stop  offset="0" style="stop-color:#00002C"/>
			<stop  offset="1" style="stop-color:#002D79"/>
		</linearGradient>
		<path style="fill:url(#SVGID_00000119094971473480276310000011351390220291004833_);" d="M207.27,55.42
			C104.45,56.14,21.72,22.58,20.9,22.24c-0.34-0.14-0.3-0.36,0.08-0.49c0.38-0.13,0.97-0.12,1.32,0.02
			c0.82,0.34,83,33.67,184.97,32.96c101.97-0.71,178.54-32.72,179.3-33.05c0.34-0.15,0.93-0.16,1.31-0.04
			c0.38,0.12,0.42,0.34,0.08,0.49C387.2,22.46,310.09,54.7,207.27,55.42z"/>
	</g>
	<g>
		
			<linearGradient id="SVGID_00000132776442562050259710000012095392109883307915_" gradientUnits="userSpaceOnUse" x1="212.236" y1="5.7658" x2="212.236" y2="89.9906" gradientTransform="matrix(1.8154 -0.0127 6.922215e-03 0.9926 -173.9796 -0.2309)">
			<stop  offset="0" style="stop-color:#00002C"/>
			<stop  offset="1" style="stop-color:#002D79"/>
		</linearGradient>
		<path style="fill:url(#SVGID_00000132776442562050259710000012095392109883307915_);" d="M214.24,46.7
			C112.65,47.4,30.93,21.87,30.12,21.61c-0.38-0.12-0.42-0.33-0.08-0.48c0.33-0.14,0.92-0.16,1.3-0.04
			c0.81,0.25,82.02,25.63,182.89,24.92c100.88-0.7,176.66-24.8,177.41-25.04c0.39-0.13,0.97-0.11,1.3,0.03
			c0.33,0.14,0.29,0.35-0.09,0.48C392.09,21.73,315.82,45.99,214.24,46.7z"/>
	</g>
	<g>
		
			<linearGradient id="SVGID_00000025440862157350983550000017758478396861884808_" gradientUnits="userSpaceOnUse" x1="207.0265" y1="4.6371" x2="207.0265" y2="88.8618" gradientTransform="matrix(1.5823 -0.011 7.404178e-03 1.0617 -110.9804 -3.7295)">
			<stop  offset="0" style="stop-color:#00002C"/>
			<stop  offset="1" style="stop-color:#002D79"/>
		</linearGradient>
		<path style="fill:url(#SVGID_00000025440862157350983550000017758478396861884808_);" d="M219.29,59.78
			C130.74,60.39,36.07,21.89,35.12,21.5c-0.32-0.13-0.34-0.36-0.04-0.51c0.3-0.15,0.8-0.16,1.14-0.02
			c0.94,0.39,95.15,38.71,183.07,38.09c87.91-0.61,177.13-40.21,178.02-40.61c0.32-0.14,0.83-0.14,1.14,0
			c0.31,0.14,0.31,0.37-0.01,0.51C397.54,19.36,307.86,59.16,219.29,59.78z"/>
	</g>
	<g>
		
			<linearGradient id="SVGID_00000071549183056198269000000006502533036380325294_" gradientUnits="userSpaceOnUse" x1="195.9128" y1="7.8817" x2="195.9128" y2="92.1068" gradientTransform="matrix(1.3749 -9.588474e-03 7.918982e-03 1.1355 -62.1524 -9.5585)">
			<stop  offset="0" style="stop-color:#00002C"/>
			<stop  offset="1" style="stop-color:#002D79"/>
		</linearGradient>
		<path style="fill:url(#SVGID_00000071549183056198269000000006502533036380325294_);" d="M208.93,56.1
			C132.08,56.63,16.52,22.06,15.36,21.71c-0.33-0.1-0.46-0.34-0.27-0.52c0.19-0.19,0.61-0.25,0.95-0.16
			c1.16,0.35,116.39,34.83,192.89,34.3s188.76-36.6,189.88-36.96c0.33-0.11,0.76-0.05,0.95,0.14c0.19,0.18,0.08,0.42-0.26,0.53
			C398.38,19.4,285.79,55.56,208.93,56.1z"/>
	</g>
</g>
</svg>
