<?xml version="1.0" encoding="utf-8"?>
<!-- Generator: Adobe Illustrator 26.2.1, SVG Export Plug-In . SVG Version: 6.00 Build 0)  -->
<svg version="1.1" id="레이어_1" xmlns="http://www.w3.org/2000/svg" xmlns:xlink="http://www.w3.org/1999/xlink" x="0px"
	 y="0px" viewBox="0 0 400 100" style="enable-background:new 0 0 400 100;" xml:space="preserve">
<style type="text/css">
	.st0{fill:url(#SVGID_1_);}
	.st1{fill:url(#SVGID_00000158744060318217902820000004710881866663514247_);}
	.st2{fill:url(#SVGID_00000020390671539808838240000005567396299751957135_);}
	.st3{fill:url(#SVGID_00000071552858273700714420000014694914912940973758_);}
	.st4{fill:url(#SVGID_00000045577661810945177810000011033603593540862872_);}
	.st5{fill:url(#SVGID_00000163767063387313793880000012452950749169805736_);}
	.st6{fill:url(#SVGID_00000024692808796039094570000000145777333878234264_);}
	.st7{fill:url(#SVGID_00000024694921006402112050000005099260275356523435_);}
	.st8{fill:url(#SVGID_00000000927739823552142250000017380114356706483619_);}
	.st9{fill:url(#SVGID_00000001653527575349891030000014780421857815771581_);}
	.st10{fill:url(#SVGID_00000142869469049620211580000005766538461390368414_);}
	.st11{fill:url(#SVGID_00000041275351326642273870000007417268577632190359_);}
	.st12{fill:url(#SVGID_00000105421462420353270950000004429109659378619530_);}
	.st13{fill:url(#SVGID_00000021839225835429857700000009858088934006169233_);}
	.st14{fill:url(#SVGID_00000039129973723085948190000006271610142428130722_);}
	.st15{fill:url(#SVGID_00000054950064843842233340000009118981574035728319_);}
	.st16{fill:url(#SVGID_00000090252516488896602130000013640150482451093163_);}
	.st17{fill:url(#SVGID_00000039812610104469417310000012901896574017323448_);}
	.st18{fill:url(#SVGID_00000025423003292463011620000004238481793395243162_);}
</style>
<g>
	<g>
		
			<linearGradient id="SVGID_1_" gradientUnits="userSpaceOnUse" x1="25.2699" y1="89.5274" x2="25.2699" y2="42.5168" gradientTransform="matrix(1 0 0 -1 0 100)">
			<stop  offset="0" style="stop-color:#00002C"/>
			<stop  offset="1" style="stop-color:#002D79"/>
		</linearGradient>
		<path class="st0" d="M25.27,80.33c-0.42,0-0.76-0.34-0.76-0.76V19.86c0-0.42,0.34-0.76,0.76-0.76s0.76,0.34,0.76,0.76v59.71
			C26.03,79.99,25.69,80.33,25.27,80.33z"/>
	</g>
	<g>
		<g>
			
				<linearGradient id="SVGID_00000030449477196163134230000007627772689905032611_" gradientUnits="userSpaceOnUse" x1="25.4449" y1="89.5276" x2="25.4449" y2="42.5163" gradientTransform="matrix(1 0 0 -1 0 100)">
				<stop  offset="0" style="stop-color:#00002C"/>
				<stop  offset="1" style="stop-color:#002D79"/>
			</linearGradient>
			<path style="fill:url(#SVGID_00000030449477196163134230000007627772689905032611_);" d="M37.42,22.98H13.47
				c-0.42,0-0.76-0.34-0.76-0.76s0.34-0.76,0.76-0.76h23.95c0.42,0,0.76,0.34,0.76,0.76S37.84,22.98,37.42,22.98z"/>
		</g>
		<g>
			
				<linearGradient id="SVGID_00000054257020770924077500000010012383885526427552_" gradientUnits="userSpaceOnUse" x1="30.6649" y1="89.5275" x2="30.6649" y2="42.5168" gradientTransform="matrix(1 0 0 -1 0 100)">
				<stop  offset="0" style="stop-color:#00002C"/>
				<stop  offset="1" style="stop-color:#002D79"/>
			</linearGradient>
			<path style="fill:url(#SVGID_00000054257020770924077500000010012383885526427552_);" d="M25.27,32.42c-0.2,0-0.4-0.08-0.55-0.24
				c-0.29-0.31-0.27-0.79,0.03-1.07l10.79-10.12c0.3-0.29,0.79-0.27,1.07,0.03c0.29,0.31,0.27,0.79-0.03,1.07L25.79,32.21
				C25.65,32.36,25.46,32.42,25.27,32.42z"/>
		</g>
		<g>
			
				<linearGradient id="SVGID_00000052098825692868686390000007271673202118274188_" gradientUnits="userSpaceOnUse" x1="19.8799" y1="89.5274" x2="19.8799" y2="42.5167" gradientTransform="matrix(1 0 0 -1 0 100)">
				<stop  offset="0" style="stop-color:#00002C"/>
				<stop  offset="1" style="stop-color:#002D79"/>
			</linearGradient>
			<path style="fill:url(#SVGID_00000052098825692868686390000007271673202118274188_);" d="M25.27,32.42
				c-0.19,0-0.37-0.07-0.52-0.21L13.96,22.09c-0.31-0.29-0.32-0.77-0.03-1.07c0.29-0.31,0.77-0.32,1.07-0.03l10.8,10.12
				c0.31,0.29,0.32,0.77,0.03,1.07C25.68,32.34,25.47,32.42,25.27,32.42z"/>
		</g>
		<g>
			
				<linearGradient id="SVGID_00000060029944064768961260000000083117374495618986_" gradientUnits="userSpaceOnUse" x1="35.5999" y1="89.5272" x2="35.5999" y2="42.5175" gradientTransform="matrix(1 0 0 -1 0 100)">
				<stop  offset="0" style="stop-color:#00002C"/>
				<stop  offset="1" style="stop-color:#002D79"/>
			</linearGradient>
			<path style="fill:url(#SVGID_00000060029944064768961260000000083117374495618986_);" d="M36.95,21.54c0,0.75-0.6,1.35-1.35,1.35
				s-1.35-0.6-1.35-1.35s0.6-1.35,1.35-1.35C36.35,20.19,36.95,20.8,36.95,21.54z"/>
		</g>
		<g>
			
				<linearGradient id="SVGID_00000022555919504862096290000013812747681962579377_" gradientUnits="userSpaceOnUse" x1="30.0399" y1="89.5272" x2="30.0399" y2="42.5175" gradientTransform="matrix(1 0 0 -1 0 100)">
				<stop  offset="0" style="stop-color:#00002C"/>
				<stop  offset="1" style="stop-color:#002D79"/>
			</linearGradient>
			<path style="fill:url(#SVGID_00000022555919504862096290000013812747681962579377_);" d="M31.39,21.54c0,0.75-0.6,1.35-1.35,1.35
				s-1.35-0.6-1.35-1.35s0.6-1.35,1.35-1.35C30.78,20.19,31.39,20.8,31.39,21.54z"/>
		</g>
		<g>
			
				<linearGradient id="SVGID_00000019656551595573541390000008676275010708547485_" gradientUnits="userSpaceOnUse" x1="14.9398" y1="89.5272" x2="14.9398" y2="42.5175" gradientTransform="matrix(1 0 0 -1 0 100)">
				<stop  offset="0" style="stop-color:#00002C"/>
				<stop  offset="1" style="stop-color:#002D79"/>
			</linearGradient>
			<path style="fill:url(#SVGID_00000019656551595573541390000008676275010708547485_);" d="M13.59,21.54c0,0.75,0.6,1.35,1.35,1.35
				s1.35-0.6,1.35-1.35s-0.6-1.35-1.35-1.35C14.2,20.19,13.59,20.8,13.59,21.54z"/>
		</g>
		<g>
			
				<linearGradient id="SVGID_00000021104557659099267190000005589124396675030945_" gradientUnits="userSpaceOnUse" x1="20.5098" y1="89.5272" x2="20.5098" y2="42.5175" gradientTransform="matrix(1 0 0 -1 0 100)">
				<stop  offset="0" style="stop-color:#00002C"/>
				<stop  offset="1" style="stop-color:#002D79"/>
			</linearGradient>
			<path style="fill:url(#SVGID_00000021104557659099267190000005589124396675030945_);" d="M19.16,21.54c0,0.75,0.6,1.35,1.35,1.35
				s1.35-0.6,1.35-1.35s-0.6-1.35-1.35-1.35C19.76,20.19,19.16,20.8,19.16,21.54z"/>
		</g>
	</g>
	<g>
		<g>
			
				<linearGradient id="SVGID_00000074434102091043125280000014737884478241064608_" gradientUnits="userSpaceOnUse" x1="25.4449" y1="89.5278" x2="25.4449" y2="42.5165" gradientTransform="matrix(1 0 0 -1 0 100)">
				<stop  offset="0" style="stop-color:#00002C"/>
				<stop  offset="1" style="stop-color:#002D79"/>
			</linearGradient>
			<path style="fill:url(#SVGID_00000074434102091043125280000014737884478241064608_);" d="M37.42,37.76H13.47
				c-0.42,0-0.76-0.34-0.76-0.76s0.34-0.76,0.76-0.76h23.95c0.42,0,0.76,0.34,0.76,0.76S37.84,37.76,37.42,37.76z"/>
		</g>
		<g>
			
				<linearGradient id="SVGID_00000088814332289526226240000015606067888590670728_" gradientUnits="userSpaceOnUse" x1="30.6649" y1="89.5274" x2="30.6649" y2="42.5169" gradientTransform="matrix(1 0 0 -1 0 100)">
				<stop  offset="0" style="stop-color:#00002C"/>
				<stop  offset="1" style="stop-color:#002D79"/>
			</linearGradient>
			<path style="fill:url(#SVGID_00000088814332289526226240000015606067888590670728_);" d="M25.27,47.2c-0.2,0-0.4-0.08-0.55-0.24
				c-0.29-0.31-0.27-0.79,0.03-1.07l10.79-10.12c0.3-0.29,0.79-0.27,1.07,0.03c0.29,0.31,0.27,0.79-0.03,1.07L25.79,47
				C25.65,47.13,25.46,47.2,25.27,47.2z"/>
		</g>
		<g>
			
				<linearGradient id="SVGID_00000159431239576044384250000004859119868925450429_" gradientUnits="userSpaceOnUse" x1="19.8799" y1="89.5274" x2="19.8799" y2="42.5167" gradientTransform="matrix(1 0 0 -1 0 100)">
				<stop  offset="0" style="stop-color:#00002C"/>
				<stop  offset="1" style="stop-color:#002D79"/>
			</linearGradient>
			<path style="fill:url(#SVGID_00000159431239576044384250000004859119868925450429_);" d="M25.27,47.2
				c-0.19,0-0.37-0.07-0.52-0.21L13.96,36.87c-0.31-0.29-0.32-0.77-0.03-1.07c0.29-0.31,0.77-0.32,1.07-0.03l10.8,10.12
				c0.31,0.29,0.32,0.77,0.03,1.07C25.68,47.12,25.47,47.2,25.27,47.2z"/>
		</g>
		<g>
			
				<linearGradient id="SVGID_00000045598359027481704350000014678822445841162392_" gradientUnits="userSpaceOnUse" x1="35.5999" y1="89.5269" x2="35.5999" y2="42.5172" gradientTransform="matrix(1 0 0 -1 0 100)">
				<stop  offset="0" style="stop-color:#00002C"/>
				<stop  offset="1" style="stop-color:#002D79"/>
			</linearGradient>
			<path style="fill:url(#SVGID_00000045598359027481704350000014678822445841162392_);" d="M36.95,36.32c0,0.75-0.6,1.35-1.35,1.35
				s-1.35-0.6-1.35-1.35s0.6-1.35,1.35-1.35C36.35,34.97,36.95,35.58,36.95,36.32z"/>
		</g>
		<g>
			
				<linearGradient id="SVGID_00000126301455548965345700000002845167633032269707_" gradientUnits="userSpaceOnUse" x1="30.0399" y1="89.5269" x2="30.0399" y2="42.5172" gradientTransform="matrix(1 0 0 -1 0 100)">
				<stop  offset="0" style="stop-color:#00002C"/>
				<stop  offset="1" style="stop-color:#002D79"/>
			</linearGradient>
			<path style="fill:url(#SVGID_00000126301455548965345700000002845167633032269707_);" d="M31.39,36.32c0,0.75-0.6,1.35-1.35,1.35
				s-1.35-0.6-1.35-1.35s0.6-1.35,1.35-1.35C30.78,34.97,31.39,35.58,31.39,36.32z"/>
		</g>
		<g>
			
				<linearGradient id="SVGID_00000160181969698641474720000014171577213431935362_" gradientUnits="userSpaceOnUse" x1="14.9398" y1="89.5269" x2="14.9398" y2="42.5172" gradientTransform="matrix(1 0 0 -1 0 100)">
				<stop  offset="0" style="stop-color:#00002C"/>
				<stop  offset="1" style="stop-color:#002D79"/>
			</linearGradient>
			<path style="fill:url(#SVGID_00000160181969698641474720000014171577213431935362_);" d="M13.59,36.32c0,0.75,0.6,1.35,1.35,1.35
				s1.35-0.6,1.35-1.35s-0.6-1.35-1.35-1.35C14.2,34.97,13.59,35.58,13.59,36.32z"/>
		</g>
		<g>
			
				<linearGradient id="SVGID_00000110458632455841749430000016056847430189190285_" gradientUnits="userSpaceOnUse" x1="20.5098" y1="89.5269" x2="20.5098" y2="42.5172" gradientTransform="matrix(1 0 0 -1 0 100)">
				<stop  offset="0" style="stop-color:#00002C"/>
				<stop  offset="1" style="stop-color:#002D79"/>
			</linearGradient>
			<path style="fill:url(#SVGID_00000110458632455841749430000016056847430189190285_);" d="M19.16,36.32c0,0.75,0.6,1.35,1.35,1.35
				s1.35-0.6,1.35-1.35s-0.6-1.35-1.35-1.35C19.76,34.97,19.16,35.58,19.16,36.32z"/>
		</g>
	</g>
</g>
<g>
	<g>
		
			<linearGradient id="SVGID_00000181785845152251359400000003400871054611795123_" gradientUnits="userSpaceOnUse" x1="212.236" y1="5.7658" x2="212.236" y2="89.9906" gradientTransform="matrix(1.8507 -0.0129 6.922209e-03 0.9926 -177.9339 -0.2031)">
			<stop  offset="0" style="stop-color:#00002C"/>
			<stop  offset="1" style="stop-color:#002D79"/>
		</linearGradient>
		<path style="fill:url(#SVGID_00000181785845152251359400000003400871054611795123_);" d="M217.82,46.67
			C114.25,47.39,30.95,21.87,30.13,21.61c-0.39-0.12-0.43-0.33-0.08-0.48c0.34-0.14,0.94-0.16,1.32-0.04
			c0.82,0.25,83.61,25.62,186.44,24.9c102.84-0.72,180.09-24.82,180.86-25.07c0.4-0.13,0.99-0.11,1.32,0.03
			c0.34,0.14,0.3,0.35-0.09,0.48C399.13,21.68,321.37,45.95,217.82,46.67z"/>
	</g>
	<g>
		
			<linearGradient id="SVGID_00000038374208349895847800000012507287843113627068_" gradientUnits="userSpaceOnUse" x1="-843.5087" y1="15.1904" x2="-843.5087" y2="99.4152" gradientTransform="matrix(0.8605 -6.000961e-03 1.460844e-03 0.2095 641.7782 9.8991)">
			<stop  offset="0" style="stop-color:#00002C"/>
			<stop  offset="1" style="stop-color:#002D79"/>
		</linearGradient>
		<path style="fill:url(#SVGID_00000038374208349895847800000012507287843113627068_);" d="M-82.71,30.15
			c-48.16,0.34-99.54-7.03-100.06-7.11c-0.18-0.03-0.18-0.07-0.02-0.1c0.16-0.03,0.44-0.03,0.62-0.01
			c0.51,0.07,51.65,7.41,99.46,7.07c47.81-0.33,96.42-8.36,96.91-8.44c0.17-0.03,0.45-0.03,0.62,0c0.17,0.03,0.17,0.07-0.01,0.1
			C14.32,21.74-34.55,29.81-82.71,30.15z"/>
		
			<linearGradient id="SVGID_00000110471274006760430050000016730699130481363117_" gradientUnits="userSpaceOnUse" x1="-817.9502" y1="12.9026" x2="-817.9502" y2="97.1274" gradientTransform="matrix(0.8605 -6.000834e-03 5.123762e-03 0.7347 641.6838 -3.6355)">
			<stop  offset="0" style="stop-color:#00002C"/>
			<stop  offset="1" style="stop-color:#002D79"/>
		</linearGradient>
		<path style="fill:url(#SVGID_00000110471274006760430050000016730699130481363117_);" d="M-60.56,52.87
			c-48.16,0.34-99.68-26.41-100.2-26.68c-0.18-0.09-0.19-0.25-0.02-0.35c0.16-0.1,0.44-0.11,0.62-0.02
			c0.51,0.27,51.79,26.88,99.6,26.55c47.81-0.33,96.29-27.64,96.77-27.91c0.17-0.1,0.45-0.1,0.62,0c0.17,0.1,0.17,0.26,0,0.35
			C36.34,25.09-12.39,52.54-60.56,52.87z"/>
	</g>
	<g>
		
			<linearGradient id="SVGID_00000132074771331335376220000010760893974867425710_" gradientUnits="userSpaceOnUse" x1="195.8621" y1="16.6879" x2="195.8621" y2="100.9129" gradientTransform="matrix(1.369 0.0607 -0.0479 1.0787 -57.6791 -19.4442)">
			<stop  offset="0" style="stop-color:#00002C"/>
			<stop  offset="1" style="stop-color:#002D79"/>
		</linearGradient>
		<path style="fill:url(#SVGID_00000132074771331335376220000010760893974867425710_);" d="M208.43,66.17
			C131.9,62.78,18.59,24.07,17.45,23.68c-0.33-0.11-0.44-0.34-0.25-0.51c0.2-0.17,0.62-0.21,0.95-0.1
			c1.13,0.39,114.14,38.99,190.3,42.37s189.67-25.17,190.81-25.46c0.33-0.09,0.76-0.01,0.94,0.18c0.18,0.18,0.06,0.4-0.28,0.49
			C398.79,40.94,284.96,69.57,208.43,66.17z"/>
	</g>
</g>
</svg>
