<?xml version="1.0" encoding="utf-8"?>
<!-- Generator: Adobe Illustrator 26.2.1, SVG Export Plug-In . SVG Version: 6.00 Build 0)  -->
<svg version="1.1" id="레이어_1" xmlns="http://www.w3.org/2000/svg" xmlns:xlink="http://www.w3.org/1999/xlink" x="0px"
	 y="0px" viewBox="0 0 400 100" style="enable-background:new 0 0 400 100;" xml:space="preserve">
<style type="text/css">
	.st0{fill:url(#SVGID_1_);}
	.st1{fill:url(#SVGID_00000149367672216866322900000006152609930813412748_);}
	.st2{fill:url(#SVGID_00000060737670738444380970000010094557212512179888_);}
	.st3{fill:url(#SVGID_00000017478559177165712590000007123563269350339471_);}
	.st4{fill:url(#SVGID_00000090272556536057828940000016004926124634975654_);}
	.st5{fill:url(#SVGID_00000143612618488724497750000005578512014764063912_);}
	.st6{fill:url(#SVGID_00000111893349426789293280000011311907374461708173_);}
	.st7{fill:url(#SVGID_00000020397925613704719520000006206937843333454471_);}
	.st8{fill:url(#SVGID_00000113334967031423139400000007091571560800459169_);}
	.st9{fill:url(#SVGID_00000121269846679370279460000010847716119768348857_);}
	.st10{fill:url(#SVGID_00000029007301134675428470000018088317447587536562_);}
	.st11{fill:url(#SVGID_00000174590479022079889700000004445880762835067264_);}
	.st12{fill:url(#SVGID_00000120538336685385785920000014665930280860989570_);}
	.st13{fill:url(#SVGID_00000012473211246031396630000007171335864586039455_);}
	.st14{fill:url(#SVGID_00000124145545847861441730000009716405506970626999_);}
	.st15{fill:url(#SVGID_00000081645059315889269920000002678913595120692405_);}
	.st16{fill:url(#SVGID_00000113342120434640741780000003446464498427626672_);}
	.st17{fill:url(#SVGID_00000150088755476220007510000003580020122845822890_);}
	.st18{fill:url(#SVGID_00000065076241682682555070000012801210278242950077_);}
</style>
<g>
	<g>
		
			<linearGradient id="SVGID_1_" gradientUnits="userSpaceOnUse" x1="199.53" y1="89.5274" x2="199.53" y2="42.5168" gradientTransform="matrix(1 0 0 -1 0 100)">
			<stop  offset="0" style="stop-color:#00002C"/>
			<stop  offset="1" style="stop-color:#002D79"/>
		</linearGradient>
		<path class="st0" d="M199.53,80.33c-0.42,0-0.76-0.34-0.76-0.76V19.86c0-0.42,0.34-0.76,0.76-0.76s0.76,0.34,0.76,0.76v59.71
			C200.29,79.99,199.95,80.33,199.53,80.33z"/>
	</g>
	<g>
		<g>
			
				<linearGradient id="SVGID_00000044888570306411840240000006043251724333495222_" gradientUnits="userSpaceOnUse" x1="199.705" y1="89.5276" x2="199.705" y2="42.5163" gradientTransform="matrix(1 0 0 -1 0 100)">
				<stop  offset="0" style="stop-color:#00002C"/>
				<stop  offset="1" style="stop-color:#002D79"/>
			</linearGradient>
			<path style="fill:url(#SVGID_00000044888570306411840240000006043251724333495222_);" d="M211.68,22.98h-23.95
				c-0.42,0-0.76-0.34-0.76-0.76s0.34-0.76,0.76-0.76h23.95c0.42,0,0.76,0.34,0.76,0.76S212.1,22.98,211.68,22.98z"/>
		</g>
		<g>
			
				<linearGradient id="SVGID_00000165954172299075774600000002605007545662426771_" gradientUnits="userSpaceOnUse" x1="204.925" y1="89.5275" x2="204.925" y2="42.5168" gradientTransform="matrix(1 0 0 -1 0 100)">
				<stop  offset="0" style="stop-color:#00002C"/>
				<stop  offset="1" style="stop-color:#002D79"/>
			</linearGradient>
			<path style="fill:url(#SVGID_00000165954172299075774600000002605007545662426771_);" d="M199.53,32.42
				c-0.2,0-0.4-0.08-0.55-0.24c-0.29-0.31-0.27-0.79,0.03-1.07l10.79-10.12c0.3-0.29,0.79-0.27,1.07,0.03
				c0.29,0.31,0.27,0.79-0.03,1.07l-10.79,10.12C199.91,32.36,199.72,32.42,199.53,32.42z"/>
		</g>
		<g>
			
				<linearGradient id="SVGID_00000055687307310382844420000017031261443177238432_" gradientUnits="userSpaceOnUse" x1="194.14" y1="89.5274" x2="194.14" y2="42.5167" gradientTransform="matrix(1 0 0 -1 0 100)">
				<stop  offset="0" style="stop-color:#00002C"/>
				<stop  offset="1" style="stop-color:#002D79"/>
			</linearGradient>
			<path style="fill:url(#SVGID_00000055687307310382844420000017031261443177238432_);" d="M199.53,32.42
				c-0.19,0-0.37-0.07-0.52-0.21l-10.79-10.12c-0.31-0.29-0.32-0.77-0.03-1.07c0.29-0.31,0.77-0.32,1.07-0.03l10.8,10.12
				c0.31,0.29,0.32,0.77,0.03,1.07C199.94,32.34,199.73,32.42,199.53,32.42z"/>
		</g>
		<g>
			
				<linearGradient id="SVGID_00000170280047184994363830000010480698954686230459_" gradientUnits="userSpaceOnUse" x1="209.86" y1="89.5272" x2="209.86" y2="42.5175" gradientTransform="matrix(1 0 0 -1 0 100)">
				<stop  offset="0" style="stop-color:#00002C"/>
				<stop  offset="1" style="stop-color:#002D79"/>
			</linearGradient>
			<path style="fill:url(#SVGID_00000170280047184994363830000010480698954686230459_);" d="M211.21,21.54
				c0,0.75-0.6,1.35-1.35,1.35s-1.35-0.6-1.35-1.35s0.6-1.35,1.35-1.35C210.61,20.19,211.21,20.8,211.21,21.54z"/>
		</g>
		<g>
			
				<linearGradient id="SVGID_00000005224933434852485180000015785867220975860610_" gradientUnits="userSpaceOnUse" x1="204.3" y1="89.5272" x2="204.3" y2="42.5175" gradientTransform="matrix(1 0 0 -1 0 100)">
				<stop  offset="0" style="stop-color:#00002C"/>
				<stop  offset="1" style="stop-color:#002D79"/>
			</linearGradient>
			<path style="fill:url(#SVGID_00000005224933434852485180000015785867220975860610_);" d="M205.65,21.54
				c0,0.75-0.6,1.35-1.35,1.35s-1.35-0.6-1.35-1.35s0.6-1.35,1.35-1.35C205.04,20.19,205.65,20.8,205.65,21.54z"/>
		</g>
		<g>
			
				<linearGradient id="SVGID_00000035514865939214310410000011790814420886294193_" gradientUnits="userSpaceOnUse" x1="189.2" y1="89.5272" x2="189.2" y2="42.5175" gradientTransform="matrix(1 0 0 -1 0 100)">
				<stop  offset="0" style="stop-color:#00002C"/>
				<stop  offset="1" style="stop-color:#002D79"/>
			</linearGradient>
			<path style="fill:url(#SVGID_00000035514865939214310410000011790814420886294193_);" d="M187.85,21.54
				c0,0.75,0.6,1.35,1.35,1.35s1.35-0.6,1.35-1.35s-0.6-1.35-1.35-1.35C188.46,20.19,187.85,20.8,187.85,21.54z"/>
		</g>
		<g>
			
				<linearGradient id="SVGID_00000106835300813475303620000005850023760984277926_" gradientUnits="userSpaceOnUse" x1="194.77" y1="89.5272" x2="194.77" y2="42.5175" gradientTransform="matrix(1 0 0 -1 0 100)">
				<stop  offset="0" style="stop-color:#00002C"/>
				<stop  offset="1" style="stop-color:#002D79"/>
			</linearGradient>
			<path style="fill:url(#SVGID_00000106835300813475303620000005850023760984277926_);" d="M193.42,21.54
				c0,0.75,0.6,1.35,1.35,1.35s1.35-0.6,1.35-1.35s-0.6-1.35-1.35-1.35C194.02,20.19,193.42,20.8,193.42,21.54z"/>
		</g>
	</g>
	<g>
		<g>
			
				<linearGradient id="SVGID_00000172416949737812188640000003867689622839374264_" gradientUnits="userSpaceOnUse" x1="199.705" y1="89.5278" x2="199.705" y2="42.5165" gradientTransform="matrix(1 0 0 -1 0 100)">
				<stop  offset="0" style="stop-color:#00002C"/>
				<stop  offset="1" style="stop-color:#002D79"/>
			</linearGradient>
			<path style="fill:url(#SVGID_00000172416949737812188640000003867689622839374264_);" d="M211.68,37.76h-23.95
				c-0.42,0-0.76-0.34-0.76-0.76s0.34-0.76,0.76-0.76h23.95c0.42,0,0.76,0.34,0.76,0.76S212.1,37.76,211.68,37.76z"/>
		</g>
		<g>
			
				<linearGradient id="SVGID_00000059277766409958872140000009317922474320788398_" gradientUnits="userSpaceOnUse" x1="204.925" y1="89.5274" x2="204.925" y2="42.5169" gradientTransform="matrix(1 0 0 -1 0 100)">
				<stop  offset="0" style="stop-color:#00002C"/>
				<stop  offset="1" style="stop-color:#002D79"/>
			</linearGradient>
			<path style="fill:url(#SVGID_00000059277766409958872140000009317922474320788398_);" d="M199.53,47.2c-0.2,0-0.4-0.08-0.55-0.24
				c-0.29-0.31-0.27-0.79,0.03-1.07l10.79-10.12c0.3-0.29,0.79-0.27,1.07,0.03c0.29,0.31,0.27,0.79-0.03,1.07L200.05,47
				C199.91,47.13,199.72,47.2,199.53,47.2z"/>
		</g>
		<g>
			
				<linearGradient id="SVGID_00000005988941075598140820000010821857041831093397_" gradientUnits="userSpaceOnUse" x1="194.14" y1="89.5274" x2="194.14" y2="42.5167" gradientTransform="matrix(1 0 0 -1 0 100)">
				<stop  offset="0" style="stop-color:#00002C"/>
				<stop  offset="1" style="stop-color:#002D79"/>
			</linearGradient>
			<path style="fill:url(#SVGID_00000005988941075598140820000010821857041831093397_);" d="M199.53,47.2
				c-0.19,0-0.37-0.07-0.52-0.21l-10.79-10.12c-0.31-0.29-0.32-0.77-0.03-1.07c0.29-0.31,0.77-0.32,1.07-0.03l10.8,10.12
				c0.31,0.29,0.32,0.77,0.03,1.07C199.94,47.12,199.73,47.2,199.53,47.2z"/>
		</g>
		<g>
			
				<linearGradient id="SVGID_00000031917421016063457080000004174134910634843826_" gradientUnits="userSpaceOnUse" x1="209.86" y1="89.5269" x2="209.86" y2="42.5172" gradientTransform="matrix(1 0 0 -1 0 100)">
				<stop  offset="0" style="stop-color:#00002C"/>
				<stop  offset="1" style="stop-color:#002D79"/>
			</linearGradient>
			<path style="fill:url(#SVGID_00000031917421016063457080000004174134910634843826_);" d="M211.21,36.32
				c0,0.75-0.6,1.35-1.35,1.35s-1.35-0.6-1.35-1.35s0.6-1.35,1.35-1.35C210.61,34.97,211.21,35.58,211.21,36.32z"/>
		</g>
		<g>
			
				<linearGradient id="SVGID_00000114064230135685949120000014348508933548393396_" gradientUnits="userSpaceOnUse" x1="204.3" y1="89.5269" x2="204.3" y2="42.5172" gradientTransform="matrix(1 0 0 -1 0 100)">
				<stop  offset="0" style="stop-color:#00002C"/>
				<stop  offset="1" style="stop-color:#002D79"/>
			</linearGradient>
			<path style="fill:url(#SVGID_00000114064230135685949120000014348508933548393396_);" d="M205.65,36.32
				c0,0.75-0.6,1.35-1.35,1.35s-1.35-0.6-1.35-1.35s0.6-1.35,1.35-1.35C205.04,34.97,205.65,35.58,205.65,36.32z"/>
		</g>
		<g>
			
				<linearGradient id="SVGID_00000034082328943639308280000008807829661969702793_" gradientUnits="userSpaceOnUse" x1="189.2" y1="89.5269" x2="189.2" y2="42.5172" gradientTransform="matrix(1 0 0 -1 0 100)">
				<stop  offset="0" style="stop-color:#00002C"/>
				<stop  offset="1" style="stop-color:#002D79"/>
			</linearGradient>
			<path style="fill:url(#SVGID_00000034082328943639308280000008807829661969702793_);" d="M187.85,36.32
				c0,0.75,0.6,1.35,1.35,1.35s1.35-0.6,1.35-1.35s-0.6-1.35-1.35-1.35C188.46,34.97,187.85,35.58,187.85,36.32z"/>
		</g>
		<g>
			
				<linearGradient id="SVGID_00000093895932716391310330000017924861135227614100_" gradientUnits="userSpaceOnUse" x1="194.77" y1="89.5269" x2="194.77" y2="42.5172" gradientTransform="matrix(1 0 0 -1 0 100)">
				<stop  offset="0" style="stop-color:#00002C"/>
				<stop  offset="1" style="stop-color:#002D79"/>
			</linearGradient>
			<path style="fill:url(#SVGID_00000093895932716391310330000017924861135227614100_);" d="M193.42,36.32
				c0,0.75,0.6,1.35,1.35,1.35s1.35-0.6,1.35-1.35s-0.6-1.35-1.35-1.35C194.02,34.97,193.42,35.58,193.42,36.32z"/>
		</g>
	</g>
</g>
<g>
	<g>
		
			<linearGradient id="SVGID_00000106859543055228465390000011398227705077086639_" gradientUnits="userSpaceOnUse" x1="260.0202" y1="13.0411" x2="260.0202" y2="60.0519" gradientTransform="matrix(1.6968 0.0301 -0.0167 0.9382 -136.7777 -4.5775)">
			<stop  offset="0" style="stop-color:#00002C"/>
			<stop  offset="1" style="stop-color:#002D79"/>
		</linearGradient>
		<path style="fill:url(#SVGID_00000106859543055228465390000011398227705077086639_);" d="M305.07,42.54
			c-53.03-0.94-95.26-19.3-95.68-19.49c-0.17-0.08-0.15-0.19,0.05-0.25c0.2-0.06,0.5-0.05,0.68,0.03
			c0.42,0.18,42.37,18.42,94.96,19.36c52.59,0.93,92.49-14.6,92.88-14.75c0.18-0.07,0.48-0.07,0.68,0c0.2,0.07,0.21,0.18,0.04,0.25
			C398.27,27.83,358.1,43.48,305.07,42.54z"/>
	</g>
	<g>
		
			<linearGradient id="SVGID_00000141444724836227204850000004190964581641144474_" gradientUnits="userSpaceOnUse" x1="260.0201" y1="13.0412" x2="260.0201" y2="60.0517" gradientTransform="matrix(1.8152 0.0322 -0.0176 0.9925 -173.0342 -7.5226)">
			<stop  offset="0" style="stop-color:#00002C"/>
			<stop  offset="1" style="stop-color:#002D79"/>
		</linearGradient>
		<path style="fill:url(#SVGID_00000141444724836227204850000004190964581641144474_);" d="M299.72,38.33
			c-56.7-1.01-101.94-16.38-102.39-16.54c-0.21-0.07-0.23-0.19-0.04-0.27c0.19-0.07,0.51-0.08,0.73,0
			c0.45,0.15,45.41,15.43,101.71,16.43c56.3,1,98.91-11.4,99.34-11.52c0.22-0.07,0.54-0.05,0.72,0.03c0.18,0.08,0.16,0.2-0.06,0.26
			C399.31,26.85,356.41,39.34,299.72,38.33z"/>
	</g>
	<g>
		
			<linearGradient id="SVGID_00000165226200165440079170000013279084426315796890_" gradientUnits="userSpaceOnUse" x1="260.0205" y1="13.0412" x2="260.0205" y2="60.0517" gradientTransform="matrix(1.5821 0.0281 -0.0188 1.0616 -109.9678 -9.4626)">
			<stop  offset="0" style="stop-color:#00002C"/>
			<stop  offset="1" style="stop-color:#002D79"/>
		</linearGradient>
		<path style="fill:url(#SVGID_00000165226200165440079170000013279084426315796890_);" d="M301.8,45.68
			c-49.42-0.88-101.71-23.67-102.24-23.9c-0.18-0.08-0.19-0.21-0.02-0.29c0.17-0.08,0.45-0.08,0.63,0
			c0.52,0.23,52.56,22.91,101.62,23.78c49.06,0.87,99.39-19.99,99.89-20.2c0.18-0.07,0.46-0.07,0.63,0.01
			c0.17,0.08,0.17,0.21-0.01,0.29C401.82,25.59,351.23,46.56,301.8,45.68z"/>
	</g>
	<g>
		
			<linearGradient id="SVGID_00000094585521424481047090000008997696222561804955_" gradientUnits="userSpaceOnUse" x1="260.3033" y1="13.0412" x2="260.3033" y2="60.0518" gradientTransform="matrix(1.3805 0.0245 -0.0175 0.9881 -63.1109 -5.3595)">
			<stop  offset="0" style="stop-color:#00002C"/>
			<stop  offset="1" style="stop-color:#002D79"/>
		</linearGradient>
		<path style="fill:url(#SVGID_00000094585521424481047090000008997696222561804955_);" d="M296.21,42.38
			c-43.07-0.76-107.39-19.1-108.03-19.28c-0.19-0.05-0.25-0.17-0.15-0.26c0.11-0.09,0.34-0.12,0.53-0.06
			c0.64,0.19,64.78,18.47,107.65,19.23c42.87,0.76,106.23-15.26,106.86-15.42c0.18-0.05,0.43-0.01,0.53,0.08
			c0.11,0.09,0.04,0.2-0.15,0.25C402.82,27.08,339.28,43.14,296.21,42.38z"/>
	</g>
</g>
</svg>
