<?xml version="1.0" encoding="utf-8"?>
<!-- Generator: Adobe Illustrator 26.2.1, SVG Export Plug-In . SVG Version: 6.00 Build 0)  -->
<svg version="1.1" id="레이어_1" xmlns="http://www.w3.org/2000/svg" xmlns:xlink="http://www.w3.org/1999/xlink" x="0px"
	 y="0px" viewBox="0 0 400 100" style="enable-background:new 0 0 400 100;" xml:space="preserve">
<style type="text/css">
	.st0{fill:#27203D;stroke:#27203D;stroke-width:1.1159;stroke-miterlimit:10;}
	.st1{fill:#27203D;stroke:#27203D;stroke-width:2;stroke-miterlimit:10;}
</style>
<g>
	<g>
		<path class="st0" d="M25.73,85.33c-0.47,0-0.85-0.38-0.85-0.85V17.85c0-0.47,0.38-0.85,0.85-0.85c0.47,0,0.85,0.38,0.85,0.85
			v66.63C26.57,84.95,26.19,85.33,25.73,85.33z"/>
	</g>
	<g>
		<g>
			<path class="st0" d="M39.28,21.34H12.56c-0.47,0-0.85-0.38-0.85-0.85s0.38-0.85,0.85-0.85h26.72c0.47,0,0.85,0.38,0.85,0.85
				S39.75,21.34,39.28,21.34z"/>
		</g>
		<g>
			<path class="st0" d="M25.73,31.87c-0.22,0-0.45-0.09-0.61-0.27c-0.32-0.35-0.3-0.88,0.03-1.19l12.04-11.29
				c0.33-0.32,0.88-0.3,1.19,0.03c0.32,0.35,0.3,0.88-0.03,1.19L26.31,31.63C26.15,31.8,25.94,31.87,25.73,31.87z"/>
		</g>
		<g>
			<path class="st0" d="M25.73,31.87c-0.21,0-0.41-0.08-0.58-0.23L13.1,20.34c-0.35-0.32-0.36-0.86-0.03-1.19
				c0.32-0.35,0.86-0.36,1.19-0.03l12.05,11.29c0.35,0.32,0.36,0.86,0.03,1.19C26.18,31.78,25.95,31.87,25.73,31.87z"/>
		</g>
		<g>
			<path class="st0" d="M38.76,19.73c0,0.84-0.67,1.51-1.51,1.51s-1.51-0.67-1.51-1.51s0.67-1.51,1.51-1.51S38.76,18.9,38.76,19.73z
				"/>
		</g>
		<g>
			<path class="st0" d="M32.55,19.73c0,0.84-0.67,1.51-1.51,1.51s-1.51-0.67-1.51-1.51s0.67-1.51,1.51-1.51
				C31.87,18.22,32.55,18.9,32.55,19.73z"/>
		</g>
		<g>
			<path class="st0" d="M12.69,19.73c0,0.84,0.67,1.51,1.51,1.51s1.51-0.67,1.51-1.51s-0.67-1.51-1.51-1.51
				C13.37,18.22,12.69,18.9,12.69,19.73z"/>
		</g>
		<g>
			<path class="st0" d="M18.91,19.73c0,0.84,0.67,1.51,1.51,1.51s1.51-0.67,1.51-1.51s-0.67-1.51-1.51-1.51S18.91,18.9,18.91,19.73z
				"/>
		</g>
	</g>
	<g>
		<g>
			<path class="st0" d="M39.28,37.83H12.56c-0.47,0-0.85-0.38-0.85-0.85c0-0.47,0.38-0.85,0.85-0.85h26.72
				c0.47,0,0.85,0.38,0.85,0.85C40.13,37.45,39.75,37.83,39.28,37.83z"/>
		</g>
		<g>
			<path class="st0" d="M25.73,48.36c-0.22,0-0.45-0.09-0.61-0.27c-0.32-0.35-0.3-0.88,0.03-1.19l12.04-11.29
				c0.33-0.32,0.88-0.3,1.19,0.03c0.32,0.35,0.3,0.88-0.03,1.19l-12.04,11.3C26.15,48.28,25.94,48.36,25.73,48.36z"/>
		</g>
		<g>
			<path class="st0" d="M25.73,48.36c-0.21,0-0.41-0.08-0.58-0.23L13.1,36.83c-0.35-0.32-0.36-0.86-0.03-1.19
				c0.32-0.35,0.86-0.36,1.19-0.03L26.32,46.9c0.35,0.32,0.36,0.86,0.03,1.19C26.18,48.27,25.95,48.36,25.73,48.36z"/>
		</g>
		<g>
			<path class="st0" d="M38.76,36.22c0,0.84-0.67,1.51-1.51,1.51s-1.51-0.67-1.51-1.51s0.67-1.51,1.51-1.51
				C38.09,34.71,38.76,35.4,38.76,36.22z"/>
		</g>
		<g>
			<path class="st0" d="M32.55,36.22c0,0.84-0.67,1.51-1.51,1.51s-1.51-0.67-1.51-1.51s0.67-1.51,1.51-1.51
				C31.87,34.71,32.55,35.4,32.55,36.22z"/>
		</g>
		<g>
			<path class="st0" d="M12.69,36.22c0,0.84,0.67,1.51,1.51,1.51s1.51-0.67,1.51-1.51s-0.67-1.51-1.51-1.51
				C13.37,34.71,12.69,35.4,12.69,36.22z"/>
		</g>
		<g>
			<path class="st0" d="M18.91,36.22c0,0.84,0.67,1.51,1.51,1.51s1.51-0.67,1.51-1.51s-0.67-1.51-1.51-1.51S18.91,35.4,18.91,36.22z
				"/>
		</g>
	</g>
</g>
<g>
	<g>
		<path class="st1" d="M217.84,46.67C114.27,47.39,30.99,27.63,30.17,27.43c-0.39-0.09-0.43-0.26-0.08-0.37
			c0.34-0.11,0.94-0.12,1.33-0.03c0.82,0.2,83.58,19.84,186.43,19.12C320.7,45.43,398,26.53,398.77,26.34
			c0.4-0.1,0.99-0.09,1.32,0.02c0.34,0.11,0.3,0.27-0.09,0.37C399.22,26.91,321.41,45.95,217.84,46.67z"/>
	</g>
	<g>
		<path class="st1" d="M-82.63,41.63c-48.16,0.34-99.62-18.23-100.14-18.42c-0.18-0.06-0.19-0.17-0.02-0.25
			c0.16-0.07,0.44-0.08,0.62-0.01c0.51,0.19,51.73,18.66,99.54,18.33s96.34-19.5,96.83-19.69c0.17-0.07,0.45-0.07,0.62,0
			s0.17,0.18,0,0.25C14.33,22.03-34.46,41.3-82.63,41.63z"/>
		<path class="st1" d="M-60.8,54.37c-48.16-0.46-99.16-35.1-99.67-35.45c-0.17-0.12-0.18-0.32-0.02-0.45
			c0.17-0.13,0.44-0.13,0.62-0.01c0.51,0.35,51.26,34.81,99.07,35.27C-13,54.19,36,20.69,36.49,20.35c0.17-0.12,0.45-0.12,0.62,0.01
			c0.17,0.13,0.16,0.33-0.01,0.45C36.61,21.17-12.64,54.84-60.8,54.37z"/>
	</g>
	<g>
		<path class="st1" d="M208.43,66.17C131.9,62.78,18.59,24.07,17.45,23.68c-0.33-0.11-0.44-0.34-0.25-0.51
			c0.2-0.17,0.62-0.21,0.95-0.1c1.13,0.39,114.14,38.99,190.3,42.37c76.16,3.38,189.67-25.17,190.81-25.46
			c0.33-0.09,0.76-0.01,0.94,0.18c0.18,0.18,0.06,0.4-0.28,0.49C398.79,40.94,284.96,69.57,208.43,66.17z"/>
	</g>
</g>
</svg>
