<?xml version="1.0" encoding="utf-8"?>
<!-- Generator: Adobe Illustrator 26.2.1, SVG Export Plug-In . SVG Version: 6.00 Build 0)  -->
<svg version="1.1" id="레이어_1" xmlns="http://www.w3.org/2000/svg" xmlns:xlink="http://www.w3.org/1999/xlink" x="0px"
	 y="0px" viewBox="0 0 400 100" style="enable-background:new 0 0 400 100;" xml:space="preserve">
<style type="text/css">
	.st0{fill:url(#SVGID_1_);}
	.st1{fill:url(#SVGID_00000101793339235129209480000017862039358105686683_);}
	.st2{fill:url(#SVGID_00000063610917225820072280000010373668098250459316_);}
	.st3{fill:url(#SVGID_00000061469469005483584780000007719481231486541736_);}
	.st4{fill:url(#SVGID_00000116925127228115884630000010652558085122322048_);}
	.st5{fill:url(#SVGID_00000085949719169194125070000000570701467057158311_);}
	.st6{fill:url(#SVGID_00000033355586805350851370000000546296036359989172_);}
	.st7{fill:url(#SVGID_00000019669331644107878790000001516592821573387171_);}
	.st8{fill:url(#SVGID_00000153687161484470760330000001726501210602248371_);}
	.st9{fill:url(#SVGID_00000121976263760650627920000001568883156074571179_);}
	.st10{fill:url(#SVGID_00000049913384188178784460000003209200424786332571_);}
	.st11{fill:url(#SVGID_00000019652575828809208980000009738921155972551357_);}
	.st12{fill:url(#SVGID_00000089534757086557025260000013033088930326194859_);}
	.st13{fill:url(#SVGID_00000129886837105203340360000016516597416963799211_);}
	.st14{fill:url(#SVGID_00000113326772454159777870000013366407156784999335_);}
</style>
<g>
	<g>
		
			<linearGradient id="SVGID_1_" gradientUnits="userSpaceOnUse" x1="199.53" y1="89.5274" x2="199.53" y2="42.5168" gradientTransform="matrix(1 0 0 -1 0 100)">
			<stop  offset="0" style="stop-color:#00002C"/>
			<stop  offset="1" style="stop-color:#002D79"/>
		</linearGradient>
		<path class="st0" d="M199.53,80.33c-0.42,0-0.76-0.34-0.76-0.76V19.86c0-0.42,0.34-0.76,0.76-0.76s0.76,0.34,0.76,0.76v59.71
			C200.29,79.99,199.95,80.33,199.53,80.33z"/>
	</g>
	<g>
		<g>
			
				<linearGradient id="SVGID_00000092458364658861612880000008349555965163793543_" gradientUnits="userSpaceOnUse" x1="199.705" y1="89.5276" x2="199.705" y2="42.5163" gradientTransform="matrix(1 0 0 -1 0 100)">
				<stop  offset="0" style="stop-color:#00002C"/>
				<stop  offset="1" style="stop-color:#002D79"/>
			</linearGradient>
			<path style="fill:url(#SVGID_00000092458364658861612880000008349555965163793543_);" d="M211.68,22.98h-23.95
				c-0.42,0-0.76-0.34-0.76-0.76s0.34-0.76,0.76-0.76h23.95c0.42,0,0.76,0.34,0.76,0.76S212.1,22.98,211.68,22.98z"/>
		</g>
		<g>
			
				<linearGradient id="SVGID_00000147216398394175074490000006115358346979735452_" gradientUnits="userSpaceOnUse" x1="204.925" y1="89.5275" x2="204.925" y2="42.5168" gradientTransform="matrix(1 0 0 -1 0 100)">
				<stop  offset="0" style="stop-color:#00002C"/>
				<stop  offset="1" style="stop-color:#002D79"/>
			</linearGradient>
			<path style="fill:url(#SVGID_00000147216398394175074490000006115358346979735452_);" d="M199.53,32.42
				c-0.2,0-0.4-0.08-0.55-0.24c-0.29-0.31-0.27-0.79,0.03-1.07l10.79-10.12c0.3-0.29,0.79-0.27,1.07,0.03
				c0.29,0.31,0.27,0.79-0.03,1.07l-10.79,10.12C199.91,32.36,199.72,32.42,199.53,32.42z"/>
		</g>
		<g>
			
				<linearGradient id="SVGID_00000137831328504482387260000005222528607358569125_" gradientUnits="userSpaceOnUse" x1="194.14" y1="89.5274" x2="194.14" y2="42.5167" gradientTransform="matrix(1 0 0 -1 0 100)">
				<stop  offset="0" style="stop-color:#00002C"/>
				<stop  offset="1" style="stop-color:#002D79"/>
			</linearGradient>
			<path style="fill:url(#SVGID_00000137831328504482387260000005222528607358569125_);" d="M199.53,32.42
				c-0.19,0-0.37-0.07-0.52-0.21l-10.79-10.12c-0.31-0.29-0.32-0.77-0.03-1.07c0.29-0.31,0.77-0.32,1.07-0.03l10.8,10.12
				c0.31,0.29,0.32,0.77,0.03,1.07C199.94,32.34,199.73,32.42,199.53,32.42z"/>
		</g>
		<g>
			
				<linearGradient id="SVGID_00000095336375419256462250000017799178882375840163_" gradientUnits="userSpaceOnUse" x1="209.86" y1="89.5272" x2="209.86" y2="42.5175" gradientTransform="matrix(1 0 0 -1 0 100)">
				<stop  offset="0" style="stop-color:#00002C"/>
				<stop  offset="1" style="stop-color:#002D79"/>
			</linearGradient>
			<path style="fill:url(#SVGID_00000095336375419256462250000017799178882375840163_);" d="M211.21,21.54
				c0,0.75-0.6,1.35-1.35,1.35s-1.35-0.6-1.35-1.35s0.6-1.35,1.35-1.35C210.61,20.19,211.21,20.8,211.21,21.54z"/>
		</g>
		<g>
			
				<linearGradient id="SVGID_00000034066418588777635590000003324928458973584318_" gradientUnits="userSpaceOnUse" x1="204.3" y1="89.5272" x2="204.3" y2="42.5175" gradientTransform="matrix(1 0 0 -1 0 100)">
				<stop  offset="0" style="stop-color:#00002C"/>
				<stop  offset="1" style="stop-color:#002D79"/>
			</linearGradient>
			<path style="fill:url(#SVGID_00000034066418588777635590000003324928458973584318_);" d="M205.65,21.54
				c0,0.75-0.6,1.35-1.35,1.35s-1.35-0.6-1.35-1.35s0.6-1.35,1.35-1.35C205.04,20.19,205.65,20.8,205.65,21.54z"/>
		</g>
		<g>
			
				<linearGradient id="SVGID_00000129894605167411561540000010852585389687660726_" gradientUnits="userSpaceOnUse" x1="189.2" y1="89.5272" x2="189.2" y2="42.5175" gradientTransform="matrix(1 0 0 -1 0 100)">
				<stop  offset="0" style="stop-color:#00002C"/>
				<stop  offset="1" style="stop-color:#002D79"/>
			</linearGradient>
			<path style="fill:url(#SVGID_00000129894605167411561540000010852585389687660726_);" d="M187.85,21.54
				c0,0.75,0.6,1.35,1.35,1.35s1.35-0.6,1.35-1.35s-0.6-1.35-1.35-1.35C188.46,20.19,187.85,20.8,187.85,21.54z"/>
		</g>
		<g>
			
				<linearGradient id="SVGID_00000115477963180389298010000015550887502370227846_" gradientUnits="userSpaceOnUse" x1="194.77" y1="89.5272" x2="194.77" y2="42.5175" gradientTransform="matrix(1 0 0 -1 0 100)">
				<stop  offset="0" style="stop-color:#00002C"/>
				<stop  offset="1" style="stop-color:#002D79"/>
			</linearGradient>
			<path style="fill:url(#SVGID_00000115477963180389298010000015550887502370227846_);" d="M193.42,21.54
				c0,0.75,0.6,1.35,1.35,1.35s1.35-0.6,1.35-1.35s-0.6-1.35-1.35-1.35C194.02,20.19,193.42,20.8,193.42,21.54z"/>
		</g>
	</g>
	<g>
		<g>
			
				<linearGradient id="SVGID_00000080172744727512719160000001125833596729671834_" gradientUnits="userSpaceOnUse" x1="199.705" y1="89.5278" x2="199.705" y2="42.5165" gradientTransform="matrix(1 0 0 -1 0 100)">
				<stop  offset="0" style="stop-color:#00002C"/>
				<stop  offset="1" style="stop-color:#002D79"/>
			</linearGradient>
			<path style="fill:url(#SVGID_00000080172744727512719160000001125833596729671834_);" d="M211.68,37.76h-23.95
				c-0.42,0-0.76-0.34-0.76-0.76s0.34-0.76,0.76-0.76h23.95c0.42,0,0.76,0.34,0.76,0.76S212.1,37.76,211.68,37.76z"/>
		</g>
		<g>
			
				<linearGradient id="SVGID_00000017501708724265933010000005429906944939388577_" gradientUnits="userSpaceOnUse" x1="204.925" y1="89.5274" x2="204.925" y2="42.5169" gradientTransform="matrix(1 0 0 -1 0 100)">
				<stop  offset="0" style="stop-color:#00002C"/>
				<stop  offset="1" style="stop-color:#002D79"/>
			</linearGradient>
			<path style="fill:url(#SVGID_00000017501708724265933010000005429906944939388577_);" d="M199.53,47.2c-0.2,0-0.4-0.08-0.55-0.24
				c-0.29-0.31-0.27-0.79,0.03-1.07l10.79-10.12c0.3-0.29,0.79-0.27,1.07,0.03c0.29,0.31,0.27,0.79-0.03,1.07L200.05,47
				C199.91,47.13,199.72,47.2,199.53,47.2z"/>
		</g>
		<g>
			
				<linearGradient id="SVGID_00000170974085229272455560000002865537135920956320_" gradientUnits="userSpaceOnUse" x1="194.14" y1="89.5274" x2="194.14" y2="42.5167" gradientTransform="matrix(1 0 0 -1 0 100)">
				<stop  offset="0" style="stop-color:#00002C"/>
				<stop  offset="1" style="stop-color:#002D79"/>
			</linearGradient>
			<path style="fill:url(#SVGID_00000170974085229272455560000002865537135920956320_);" d="M199.53,47.2
				c-0.19,0-0.37-0.07-0.52-0.21l-10.79-10.12c-0.31-0.29-0.32-0.77-0.03-1.07c0.29-0.31,0.77-0.32,1.07-0.03l10.8,10.12
				c0.31,0.29,0.32,0.77,0.03,1.07C199.94,47.12,199.73,47.2,199.53,47.2z"/>
		</g>
		<g>
			
				<linearGradient id="SVGID_00000136389082299350474670000010507270896090736309_" gradientUnits="userSpaceOnUse" x1="209.86" y1="89.5269" x2="209.86" y2="42.5172" gradientTransform="matrix(1 0 0 -1 0 100)">
				<stop  offset="0" style="stop-color:#00002C"/>
				<stop  offset="1" style="stop-color:#002D79"/>
			</linearGradient>
			<path style="fill:url(#SVGID_00000136389082299350474670000010507270896090736309_);" d="M211.21,36.32
				c0,0.75-0.6,1.35-1.35,1.35s-1.35-0.6-1.35-1.35s0.6-1.35,1.35-1.35C210.61,34.97,211.21,35.58,211.21,36.32z"/>
		</g>
		<g>
			
				<linearGradient id="SVGID_00000158744590194849470480000010375732272311783846_" gradientUnits="userSpaceOnUse" x1="204.3" y1="89.5269" x2="204.3" y2="42.5172" gradientTransform="matrix(1 0 0 -1 0 100)">
				<stop  offset="0" style="stop-color:#00002C"/>
				<stop  offset="1" style="stop-color:#002D79"/>
			</linearGradient>
			<path style="fill:url(#SVGID_00000158744590194849470480000010375732272311783846_);" d="M205.65,36.32
				c0,0.75-0.6,1.35-1.35,1.35s-1.35-0.6-1.35-1.35s0.6-1.35,1.35-1.35C205.04,34.97,205.65,35.58,205.65,36.32z"/>
		</g>
		<g>
			
				<linearGradient id="SVGID_00000074443820097510314930000003361035350619384448_" gradientUnits="userSpaceOnUse" x1="189.2" y1="89.5269" x2="189.2" y2="42.5172" gradientTransform="matrix(1 0 0 -1 0 100)">
				<stop  offset="0" style="stop-color:#00002C"/>
				<stop  offset="1" style="stop-color:#002D79"/>
			</linearGradient>
			<path style="fill:url(#SVGID_00000074443820097510314930000003361035350619384448_);" d="M187.85,36.32
				c0,0.75,0.6,1.35,1.35,1.35s1.35-0.6,1.35-1.35s-0.6-1.35-1.35-1.35C188.46,34.97,187.85,35.58,187.85,36.32z"/>
		</g>
		<g>
			
				<linearGradient id="SVGID_00000102542198616986697370000010053764528138723210_" gradientUnits="userSpaceOnUse" x1="194.77" y1="89.5269" x2="194.77" y2="42.5172" gradientTransform="matrix(1 0 0 -1 0 100)">
				<stop  offset="0" style="stop-color:#00002C"/>
				<stop  offset="1" style="stop-color:#002D79"/>
			</linearGradient>
			<path style="fill:url(#SVGID_00000102542198616986697370000010053764528138723210_);" d="M193.42,36.32
				c0,0.75,0.6,1.35,1.35,1.35s1.35-0.6,1.35-1.35s-0.6-1.35-1.35-1.35C194.02,34.97,193.42,35.58,193.42,36.32z"/>
		</g>
	</g>
</g>
</svg>
